<?xml version="1.0" encoding="UTF-8"?>
<svg version="1.1" xmlns="http://www.w3.org/2000/svg" width="1280" height="1024">
<path d="M0 0 C16.57830786 -0.12032643 16.57830786 -0.12032643 23.74609375 -0.14648438 C28.60182763 -0.16428996 33.45738889 -0.1851535 38.31298828 -0.22631836 C42.23581305 -0.25936016 46.15845225 -0.27694537 50.08140564 -0.28463173 C51.56423355 -0.29009613 53.04705345 -0.30076135 54.52980042 -0.31719017 C79.59104183 -0.58335325 101.89816472 6.23458755 121 23 C121.74894531 23.65355469 122.49789062 24.30710937 123.26953125 24.98046875 C140.03515935 40.63034577 149.08524384 63.01829521 150.125 85.73046875 C150.67104308 111.56513203 140.98558701 134.40278125 123.375 153.125 C99.45178917 176.15942281 70.76335097 178.65263666 39.10590649 178.40557575 C35.29168357 178.38019195 31.47744133 178.37819152 27.66314697 178.37347412 C20.47425211 178.36115101 13.28560703 178.32847761 6.09682107 178.28807616 C-2.10175834 178.24302166 -10.30035109 178.22128767 -18.49902391 178.20129442 C-35.3328277 178.15973244 -52.16638174 178.0895934 -69 178 C-69.01897424 176.40564532 -69.03248403 174.811225 -69.04370117 173.21679688 C-69.0518132 172.32891479 -69.05992523 171.44103271 -69.06828308 170.52624512 C-68.72315011 157.75748203 -61.26945811 145.50430466 -52.7421875 136.546875 C-37.91702697 122.77763758 -20.68084029 120.71578247 -1.37040329 120.69503975 C1.40549669 120.69133425 4.18105254 120.6744976 6.95687866 120.65428162 C14.8409789 120.59924932 22.72512668 120.56817292 30.609375 120.54370117 C35.45269621 120.52777137 40.29576701 120.49750741 45.13895798 120.45893669 C46.97360949 120.44734713 48.80830581 120.44135687 50.64299393 120.44125557 C53.21229309 120.44106212 55.78090593 120.42269775 58.35009766 120.40063477 C59.09527145 120.40521194 59.84044525 120.40978912 60.60820007 120.414505 C69.52918803 120.29356813 77.66498063 117.3883669 84 111 C90.49594636 102.14189132 93.1217959 93.98252034 92 83 C89.47083552 73.36183265 84.70099701 66.71975256 76.4765625 61.26171875 C71.16054926 58.55340285 65.96686066 57.74820636 60.05493164 57.68115234 C59.40042023 57.67110672 58.74590881 57.6610611 58.07156372 57.65071106 C55.93443585 57.62012131 53.79743179 57.60291245 51.66015625 57.5859375 C50.1679937 57.56720627 48.67584152 57.54763143 47.18370056 57.5272522 C43.27609398 57.47613119 39.36845313 57.43639896 35.46069336 57.39910889 C30.76149269 57.35186812 26.06245937 57.2903569 21.36339569 57.23126221 C14.2423321 57.14329436 7.1212966 57.07335573 0 57 C0 38.19 0 19.38 0 0 Z " fill="#43609E" transform="translate(368,277)"/>
<path d="M0 0 C1.36076861 0.0002825 2.72153738 0.00012292 4.08230591 -0.0004425 C7.75528228 -0.00072805 11.42822564 0.00512925 15.10119438 0.01213145 C18.94754746 0.01840559 22.79390139 0.01897199 26.64025879 0.02015686 C33.91443931 0.02325824 41.1886047 0.03145548 48.46277857 0.04150635 C56.74817316 0.05270463 65.03356849 0.05818728 73.31896877 0.06320179 C90.35393062 0.07363914 107.38887777 0.09121537 124.42382812 0.11352539 C124.44376187 1.70641034 124.4579479 3.29936786 124.46972656 4.89233398 C124.47824646 5.77940033 124.48676636 6.66646667 124.49554443 7.58041382 C124.11003193 21.1972076 115.62331608 34.27222091 106.06835938 43.35180664 C91.51985373 55.63361347 74.80006284 57.55704092 56.47704124 57.5242157 C53.71341493 57.51966695 50.95040542 57.53392997 48.18684387 57.5526123 C41.33410617 57.59522988 34.48138703 57.60663578 27.62854004 57.61883545 C21.80824216 57.63040306 15.98823207 57.6540489 10.16805458 57.69352722 C7.4599064 57.70699876 4.75215902 57.70294742 2.04399109 57.69812012 C0.37136334 57.70746596 -1.30126008 57.71763609 -2.97387695 57.72875977 C-3.71433762 57.72261154 -4.45479828 57.71646332 -5.21769714 57.71012878 C-13.7471864 57.8090406 -20.9196497 60.54549316 -27.49414062 65.94555664 C-34.66957078 73.41715839 -36.96345596 81.90824528 -36.85351562 91.94946289 C-36.14571693 100.0243494 -32.18036824 107.32896409 -26.57617188 113.11352539 C-20.00377603 118.37411921 -13.03399467 120.33706615 -4.63110352 120.43237305 C-3.9765921 120.44241867 -3.32208069 120.45246429 -2.6477356 120.46281433 C-0.51060773 120.49340409 1.62639633 120.51061294 3.76367188 120.52758789 C5.25583443 120.54631912 6.74798661 120.56589396 8.24012756 120.58627319 C12.14773414 120.6373942 16.05537499 120.67712643 19.96313477 120.7144165 C24.66233544 120.76165727 29.36136875 120.82316849 34.06043243 120.88226318 C41.18149603 120.97023103 48.30253153 121.04016967 55.42382812 121.11352539 C55.42382812 139.92352539 55.42382812 158.73352539 55.42382812 178.11352539 C38.84552027 178.23385182 38.84552027 178.23385182 31.67773438 178.26000977 C26.8220005 178.27781535 21.96643924 178.29867889 17.11083984 178.33984375 C13.18801507 178.37288555 9.26537588 178.39047076 5.34242249 178.39815712 C3.85959458 178.40362153 2.37677467 178.41428674 0.89402771 178.43071556 C-25.02930801 178.70603452 -48.30494739 171.38935906 -67.34179688 153.34790039 C-80.88688192 139.80281535 -90.67969053 123.2980122 -93.57617188 104.11352539 C-93.68574219 103.41485352 -93.7953125 102.71618164 -93.90820312 101.99633789 C-96.9939343 78.87392563 -91.4970908 54.92759924 -77.57617188 36.11352539 C-74.17590742 31.84291124 -70.45949922 27.94461067 -66.57617188 24.11352539 C-65.90972656 23.44836914 -65.24328125 22.78321289 -64.55664062 22.09790039 C-46.59037818 5.30417297 -23.81939357 -0.06787777 0 0 Z " fill="#43609E" transform="translate(109.576171875,276.886474609375)"/>
<path d="M0 0 C18.2243422 15.24988953 30.87699079 34.88236445 34.26318359 58.64257812 C34.34801919 60.6913343 34.38523997 62.74242715 34.38343811 64.79293823 C34.38550011 66.61014626 34.38550011 66.61014626 34.38760376 68.46406555 C34.38400848 69.77964951 34.38041321 71.09523346 34.37670898 72.45068359 C34.37642669 73.86041766 34.37658568 75.27015188 34.37715149 76.67988586 C34.3774378 80.49553754 34.37156794 84.31115762 34.36457753 88.12680197 C34.35831632 92.11864149 34.357738 96.11048177 34.35655212 100.10232544 C34.35344697 107.65635841 34.34524458 115.21037687 34.33520263 122.76440346 C34.32401617 131.36655348 34.31852466 139.96870419 34.3135072 148.57085967 C34.30306128 166.26144071 34.28547764 183.95200825 34.26318359 201.64257812 C32.33473294 201.49472484 30.40656129 201.34322938 28.47851562 201.19018555 C26.86784714 201.06422249 26.86784714 201.06422249 25.22463989 200.93571472 C12.16894992 199.64341116 0.07630852 192.09088323 -8.73681641 182.64257812 C-17.4731528 171.54758608 -21.87571485 160.32498012 -21.89453125 146.24731445 C-21.89961197 145.41408661 -21.90469269 144.58085876 -21.90992737 143.72238159 C-21.92060428 141.91744337 -21.9292349 140.11249212 -21.9360466 138.30753517 C-21.94788165 135.44369844 -21.96734757 132.58000941 -21.98916626 129.7162323 C-22.05061819 121.57511361 -22.1047329 113.4340104 -22.13818359 105.29272461 C-22.15921582 100.30717195 -22.19458799 95.32188984 -22.23894119 90.33649254 C-22.25303432 88.44406013 -22.2618084 86.55157987 -22.26499557 84.65909767 C-22.28990385 71.28213588 -22.47749748 59.24206163 -31.73681641 48.64257812 C-38.40319981 42.58463448 -46.86627028 39.40251862 -55.88916016 39.77148438 C-62.09421107 40.64003501 -67.42859046 42.31095154 -72.73681641 45.64257812 C-73.60306641 46.17882812 -74.46931641 46.71507812 -75.36181641 47.26757812 C-85.48522129 57.39098301 -86.03948006 69.09776707 -86.15087891 82.64257812 C-86.16961701 84.0884712 -86.18919233 85.53435364 -86.20956421 86.98022461 C-86.26061277 90.76122737 -86.30038324 94.54226548 -86.33770752 98.32342529 C-86.38500609 102.87330859 -86.44648559 107.42302027 -86.5055542 111.97276306 C-86.59343347 118.86263109 -86.66343523 125.75247179 -86.73681641 132.64257812 C-105.21681641 132.64257812 -123.69681641 132.64257812 -142.73681641 132.64257812 C-142.89725164 114.85654945 -142.89725164 114.85654945 -142.93212891 107.16796875 C-142.95587209 101.95889616 -142.98369608 96.75010958 -143.03857422 91.54125977 C-143.0826225 87.33312831 -143.10607516 83.1253043 -143.11632538 78.91695976 C-143.12361264 77.32608651 -143.13783603 75.73522657 -143.15973663 74.14448738 C-143.34815917 59.86673066 -141.5687321 45.75662137 -135.04931641 32.83007812 C-134.70755371 32.13197021 -134.36579102 31.4338623 -134.01367188 30.71459961 C-123.32156127 9.61378957 -104.25894483 -6.30350317 -81.84228516 -13.71679688 C-54.38466197 -21.78740816 -22.95184129 -17.93818353 0 0 Z " fill="#3587B4" transform="translate(320.73681640625,132.357421875)"/>
<path d="M0 0 C1.92845065 0.14785329 3.8566223 0.29934874 5.78466797 0.45239258 C6.85844696 0.53636795 7.93222595 0.62034332 9.0385437 0.7068634 C22.09423367 1.99916697 34.18687507 9.5516949 43 19 C51.7363364 30.09499205 56.13889845 41.31759801 56.15771484 55.39526367 C56.16279556 56.22849152 56.16787628 57.06171936 56.17311096 57.92019653 C56.18378788 59.72513476 56.19241849 61.530086 56.19923019 63.33504295 C56.21106524 66.19887968 56.23053117 69.06256872 56.25234985 71.92634583 C56.31380178 80.06746452 56.36791649 88.20856772 56.40136719 96.34985352 C56.42239941 101.33540617 56.45777158 106.32068829 56.50212479 111.30608559 C56.51621791 113.19851799 56.524992 115.09099825 56.52817917 116.98348045 C56.55308745 130.36044225 56.74068108 142.4005165 66 153 C72.6663834 159.05794365 81.12945388 162.24005951 90.15234375 161.87109375 C96.35739466 161.00254312 101.69177406 159.33162659 107 156 C108.299375 155.195625 108.299375 155.195625 109.625 154.375 C119.74840488 144.25159512 120.30266365 132.54481106 120.4140625 119 C120.4328006 117.55410693 120.45237593 116.10822449 120.4727478 114.66235352 C120.52379637 110.88135076 120.56356683 107.10031265 120.60089111 103.31915283 C120.64818969 98.76926953 120.70966918 94.21955786 120.76873779 89.66981506 C120.85661706 82.77994704 120.92661882 75.89010633 121 69 C139.48 69 157.96 69 177 69 C177.16043524 86.78602867 177.16043524 86.78602867 177.1953125 94.47460938 C177.21905569 99.68368196 177.24687968 104.89246855 177.30175781 110.10131836 C177.34580609 114.30944982 177.36925876 118.51727383 177.37950897 122.72561836 C177.38679624 124.31649161 177.40101962 125.90735156 177.42292023 127.49809074 C177.61080419 141.73503732 175.84280335 155.84470324 169.375 168.75 C169.03654053 169.44480469 168.69808105 170.13960937 168.34936523 170.85546875 C157.65894908 191.93175834 138.50101878 207.95306235 116.10546875 215.359375 C92.17941623 222.39195274 67.48640806 220.25446661 45.39453125 208.62890625 C25.30443967 197.13550502 10.05251777 179.13981036 3 157 C0.42829571 147.34258921 -0.4241059 138.24934916 -0.34057617 128.28369141 C-0.33972721 126.87277749 -0.34021028 125.46186225 -0.34190369 124.0509491 C-0.34275458 120.26872083 -0.32527821 116.48678559 -0.30418181 112.70462465 C-0.28526152 108.73420022 -0.28365261 104.763767 -0.28010559 100.79330444 C-0.27082976 93.29614653 -0.2462773 85.7991219 -0.21605712 78.30202234 C-0.18237306 69.7577437 -0.16599211 61.21345826 -0.15097082 52.66912961 C-0.11972305 35.11267634 -0.06705068 17.55635232 0 0 Z " fill="#406AA4" transform="translate(178,398)"/>
<path d="M0 0 C9.57 0 19.14 0 29 0 C31.47598167 5.57095876 33.87110781 11.06692137 36.0234375 16.75390625 C36.29209625 17.45789047 36.560755 18.16187469 36.83755493 18.88719177 C37.68568139 21.11142223 38.53036227 23.33694275 39.375 25.5625 C39.93207451 27.02417132 40.489365 28.48576035 41.046875 29.94726562 C42.42588698 33.56504022 43.79831101 37.18527091 45.16833496 40.80645752 C46.02559751 43.06751423 46.88812555 45.32651994 47.75097656 47.58544922 C48.30549626 49.04518749 48.85986406 50.50498348 49.4140625 51.96484375 C49.67464447 52.64382217 49.93522644 53.3228006 50.20370483 54.02235413 C52 58.77276511 52 58.77276511 52 61 C52.66 61 53.32 61 54 61 C54.08918701 60.21786133 54.17837402 59.43572266 54.27026367 58.62988281 C55.2329069 53.84146545 56.92757535 49.47316107 58.67578125 44.921875 C59.04221237 43.9552594 59.40864349 42.9886438 59.78617859 41.99273682 C60.95643222 38.90982344 62.1344501 35.82994146 63.3125 32.75 C64.09358875 30.69419644 64.87419267 28.63820861 65.65429688 26.58203125 C67.10044394 22.77723773 68.54738669 18.97276208 70.0012207 15.17089844 C70.43637749 14.03222321 70.43637749 14.03222321 70.88032532 12.87054443 C72.55815313 8.56904564 74.2852366 4.28690851 76 0 C85.57 0 95.14 0 105 0 C105 0.66 105 1.32 105 2 C104.43410156 2.19335938 103.86820313 2.38671875 103.28515625 2.5859375 C102.18494141 2.97652344 102.18494141 2.97652344 101.0625 3.375 C99.96615234 3.75785156 99.96615234 3.75785156 98.84765625 4.1484375 C96.81317884 4.85271413 96.81317884 4.85271413 96 7 C95.90207198 9.39497682 95.86366677 11.76080902 95.87060547 14.15600586 C95.86885315 14.8927504 95.86710083 15.62949493 95.86529541 16.38856506 C95.86088434 18.83068173 95.86381257 21.27272631 95.8671875 23.71484375 C95.86651417 25.40873732 95.86554391 27.1026308 95.86428833 28.79652405 C95.86281231 32.34995441 95.86496259 35.90335966 95.86962891 39.45678711 C95.87532179 44.01445232 95.87204938 48.5720586 95.86605644 53.12972164 C95.86244456 56.62895655 95.86359239 60.12817747 95.86618423 63.6274128 C95.86685199 65.30795867 95.86603035 66.98850582 95.86370468 68.66905022 C95.86116838 71.01760095 95.8650328 73.36605601 95.87060547 75.71459961 C95.86756912 76.75969193 95.86756912 76.75969193 95.86447144 77.82589722 C95.87771739 80.83559099 96.03954433 83.11863298 97 86 C98.87387216 86.80212628 98.87387216 86.80212628 101.0625 87.1875 C102.16271484 87.42533203 102.16271484 87.42533203 103.28515625 87.66796875 C104.13400391 87.83232422 104.13400391 87.83232422 105 88 C105 88.66 105 89.32 105 90 C92.13 90 79.26 90 66 90 C66 89.34 66 88.68 66 88 C66.56589844 87.86722656 67.13179687 87.73445313 67.71484375 87.59765625 C68.81505859 87.33275391 68.81505859 87.33275391 69.9375 87.0625 C71.03384766 86.80146484 71.03384766 86.80146484 72.15234375 86.53515625 C73.99969898 86.16112431 73.99969898 86.16112431 75 85 C75.0940067 83.03630847 75.11743381 81.06920801 75.11352539 79.10327148 C75.11344986 77.84203964 75.11337433 76.5808078 75.11329651 75.28135681 C75.1081891 73.89460206 75.10297309 72.50784771 75.09765625 71.12109375 C75.09579201 69.71004791 75.09436814 68.29900143 75.09336853 66.88795471 C75.08954379 63.16759465 75.0797139 59.4472734 75.06866455 55.72692871 C75.05844948 51.93319219 75.05387071 48.13944942 75.04882812 44.34570312 C75.03809158 36.89711769 75.0210157 29.44856428 75 22 C74.74801346 22.67492493 74.49602692 23.34984985 74.23640442 24.04522705 C71.84148828 30.45857485 69.44437037 36.87109592 67.04488087 43.28273392 C65.81186008 46.57769744 64.57964248 49.87295632 63.34936523 53.16894531 C61.92942314 56.97294418 60.50580005 60.77555672 59.08203125 64.578125 C58.64848831 65.74112122 58.21494537 66.90411743 57.76826477 68.10235596 C55.00485913 75.47210017 52.07859502 82.75625909 49 90 C46.69 90 44.38 90 42 90 C33.75 68.22 25.5 46.44 17 24 C16.979375 33.673125 16.95875 43.34625 16.9375 53.3125 C16.928396 56.36540283 16.91929199 59.41830566 16.90991211 62.5637207 C16.90699225 64.97607377 16.90444386 67.38842733 16.90234375 69.80078125 C16.8946698 71.68863342 16.8946698 71.68863342 16.88684082 73.61462402 C16.88671997 74.8121228 16.88659912 76.00962158 16.88647461 77.2434082 C16.88314369 78.80560844 16.88314369 78.80560844 16.87974548 80.39936829 C16.88713309 83.11484837 16.88713309 83.11484837 18 86 C19.87387216 86.80212628 19.87387216 86.80212628 22.0625 87.1875 C23.16271484 87.42533203 23.16271484 87.42533203 24.28515625 87.66796875 C24.85105469 87.77753906 25.41695312 87.88710938 26 88 C26 88.66 26 89.32 26 90 C17.42 90 8.84 90 0 90 C0 89.34 0 88.68 0 88 C0.56589844 87.86722656 1.13179687 87.73445313 1.71484375 87.59765625 C2.81505859 87.33275391 2.81505859 87.33275391 3.9375 87.0625 C4.66839844 86.88847656 5.39929688 86.71445312 6.15234375 86.53515625 C7.99969898 86.16112431 7.99969898 86.16112431 9 85 C9.09502416 82.50507612 9.12557566 80.03793986 9.11352539 77.54272461 C9.11367142 76.76229294 9.11381744 75.98186127 9.1139679 75.17778015 C9.11326858 72.5859402 9.10547536 69.99417122 9.09765625 67.40234375 C9.09579213 65.6101536 9.0943682 63.81796294 9.09336853 62.02577209 C9.08954284 57.29929203 9.07971212 52.57284248 9.06866455 47.84637451 C9.05845153 43.0271445 9.05387115 38.20790958 9.04882812 33.38867188 C9.03808989 23.92576781 9.02101286 14.46288644 9 5 C6.03 4.01 3.06 3.02 0 2 C0 1.34 0 0.68 0 0 Z " fill="#4B4990" transform="translate(544,304)"/>
<path d="M0 0 C0.00808685 1.03015228 0.01617371 2.06030457 0.02450562 3.12167358 C0.10220915 12.86075288 0.19000831 22.59969664 0.28752708 32.33859825 C0.33733461 37.3446822 0.38366531 42.35074662 0.421875 47.35693359 C0.45892504 52.19404079 0.50533692 57.03097818 0.55806351 61.867939 C0.5765032 63.7073428 0.59164902 65.54678286 0.60334396 67.38624191 C0.69156442 80.80704062 0.69156442 80.80704062 3 94 C4.65 94.33 6.3 94.66 8 95 C8.99 93.515 8.99 93.515 10 92 C11.98 92.495 11.98 92.495 14 93 C13.9375 94.8125 13.9375 94.8125 13 97 C6.22762254 100.86992998 0.1956105 100.74365892 -7.1875 98.75 C-11.1313824 97.47993618 -13.98173176 95.9176593 -17 93 C-18.010625 93.78375 -19.02125 94.5675 -20.0625 95.375 C-25.64137815 99.33746275 -31.19402254 100.57677775 -38 100 C-46.6457986 98.4175743 -53.50177744 94.66679369 -58.82421875 87.56640625 C-65.67877098 76.6621912 -66.89359989 64.18826309 -64.3125 51.6640625 C-61.9217734 44.55165088 -58.13804605 37.77109504 -51.75 33.5625 C-46.2088039 30.8224825 -39.82464368 30.15673355 -33.875 31.875 C-27.48476562 34.66748047 -22.95269331 40.87336252 -20 47 C-19.9259579 41.90970056 -19.87144992 36.81971308 -19.83520508 31.72900391 C-19.8200991 29.99652651 -19.79961306 28.26408746 -19.77368164 26.53173828 C-19.73737679 24.04450022 -19.72029235 21.55776674 -19.70703125 19.0703125 C-19.69154739 18.29317902 -19.67606354 17.51604553 -19.66011047 16.71536255 C-19.62430435 14.30264162 -19.62430435 14.30264162 -20 11 C-23.18762365 8.87491756 -25.26512223 8.4979837 -29 8 C-29 7.34 -29 6.68 -29 6 C-27.73285156 5.90203125 -26.46570313 5.8040625 -25.16015625 5.703125 C-17.1819753 5.01783392 -7.008406 0 0 0 Z M-42.234375 49.68359375 C-47.19491015 58.0410171 -47.40797181 68.6922863 -45.31640625 78.0625 C-43.40515088 83.26492127 -40.79767111 88.00007692 -36 91 C-31.79049881 92.5089047 -28.30825022 92.37405178 -24.1875 90.6875 C-20.96905978 89.05226795 -20.96905978 89.05226795 -18 87 C-17.62692825 84.64315713 -17.62692825 84.64315713 -17.8203125 81.90625 C-17.8615625 80.875 -17.9028125 79.84375 -17.9453125 78.78125 C-18.00460937 77.6984375 -18.06390625 76.615625 -18.125 75.5 C-18.17914062 73.9221875 -18.17914062 73.9221875 -18.234375 72.3125 C-18.71252477 62.14552598 -20.3354516 52.48182103 -27.9375 45.125 C-33.52853434 42.07534491 -38.63467475 44.773876 -42.234375 49.68359375 Z " fill="#4B4990" transform="translate(797,296)"/>
<path d="M0 0 C1.06723961 3.46222615 1.10173486 6.64039266 1.0625 10.25 C1.05347656 11.32765625 1.04445313 12.4053125 1.03515625 13.515625 C1.02355469 14.33546875 1.01195312 15.1553125 1 16 C1.4125 15.33613281 1.825 14.67226563 2.25 13.98828125 C6.42774692 7.60043161 10.47774065 2.68068763 17.9765625 0.3984375 C25.3563777 -1.05473074 31.61579234 -0.02325539 38 4 C44.40066994 8.97829884 46.3422982 16.34703165 48 24 C48.68602586 29.97366589 48.65304352 35.99454919 48.6875 42 C48.7167256 44.357854 48.75132362 46.71552474 48.78999329 49.07324219 C48.81219201 50.52563044 48.82818427 51.97813195 48.83683777 53.43066406 C48.87577575 57.075058 49.1414219 60.45423962 50 64 C52.33165034 64.33498301 52.33165034 64.33498301 55 64 C57.31377147 62.10415891 57.31377147 62.10415891 59 60 C60.485 60.99 60.485 60.99 62 62 C61.07011275 64.32471812 60.3827544 65.73065431 58.3125 67.1875 C50.45452649 69.94840961 42.67758059 68.89093683 35.0625 65.8125 C31.22112133 62.43674299 29.26981859 59.08005915 28.61645508 54.04321289 C28.45345151 50.56691233 28.39009789 47.10506455 28.375 43.625 C28.68832766 29.97073267 28.68832766 29.97073267 23.9375 17.5 C20.06218462 14.20185925 17.01693719 13.63446724 12 14 C8.09394085 15.30201972 6.67927955 17.24127201 4.8125 20.75 C1.93275714 26.77907867 0.74746562 32.57974486 0.8046875 39.24609375 C0.80893234 40.23005882 0.80893234 40.23005882 0.81326294 41.23390198 C0.82434016 43.30196409 0.84941937 45.36957173 0.875 47.4375 C0.88504598 48.85090515 0.89416898 50.26431717 0.90234375 51.67773438 C0.92423816 55.11863394 0.95867949 58.55927252 1 62 C3.97 62.99 6.94 63.98 10 65 C10 65.66 10 66.32 10 67 C-2.54 67 -15.08 67 -28 67 C-28 66.34 -28 65.68 -28 65 C-25.03 64.01 -22.06 63.02 -19 62 C-18.92601201 54.77346049 -18.87147462 47.54713994 -18.83520508 40.3203125 C-18.82009012 37.86031252 -18.79959773 35.40033959 -18.77368164 32.94042969 C-18.7374177 29.41073948 -18.72030086 25.88140456 -18.70703125 22.3515625 C-18.69154739 21.24632233 -18.67606354 20.14108215 -18.66011047 19.00234985 C-18.65988388 17.98144257 -18.65965729 16.96053528 -18.65942383 15.90869141 C-18.65276199 15.00712311 -18.64610016 14.10555481 -18.63923645 13.17666626 C-18.75828842 12.45836639 -18.87734039 11.74006653 -19 11 C-22.18762365 8.87491756 -24.26512223 8.4979837 -28 8 C-28 7.01 -28 6.02 -28 5 C-26.81664062 4.97421875 -25.63328125 4.9484375 -24.4140625 4.921875 C-15.61723544 4.63819639 -7.92154355 4.27922579 0 0 Z " fill="#4B4990" transform="translate(597,497)"/>
<path d="M0 0 C0.66 0.33 1.32 0.66 2 1 C1.83628906 1.70511719 1.67257812 2.41023438 1.50390625 3.13671875 C0.98300176 6.09658688 0.90133268 8.81061273 0.9375 11.8125 C0.94652344 12.78832031 0.95554687 13.76414062 0.96484375 14.76953125 C0.97644531 15.50558594 0.98804688 16.24164062 1 17 C1.36351562 16.40832031 1.72703125 15.81664062 2.1015625 15.20703125 C6.98854045 7.52570437 11.86032066 2.17213586 21 0 C27.49561315 -0.9328201 32.66147129 0.14016763 38 4 C44.71058337 9.95749185 47.6509288 16.03735599 48.28051758 24.98803711 C48.47108428 30.51897162 48.4859728 36.05182419 48.51123047 41.58544922 C48.52700836 43.97651764 48.56000729 46.36694068 48.59375 48.7578125 C48.59072876 49.48090607 48.58770752 50.20399963 48.58459473 50.94900513 C48.65940419 56.06279813 49.77673839 59.49973568 52 64 C54.43717258 63.72965366 54.43717258 63.72965366 57 63 C57.66 62.01 58.32 61.02 59 60 C60.485 60.99 60.485 60.99 62 62 C60.63016497 65.16115776 60.0109362 65.9927092 57 68 C49.34750384 69.61105182 42.4810662 68.89876338 35.5625 65.125 C32.16715237 62.30934586 30.3941474 60.18244219 29 56 C28.88392536 53.88352448 28.8214789 51.76393945 28.7890625 49.64453125 C28.76070312 48.38189453 28.73234375 47.11925781 28.703125 45.81835938 C28.64863036 43.16726018 28.60704767 40.51672636 28.5703125 37.86523438 C28.34222551 26.39551597 28.34222551 26.39551597 22.9375 16.5625 C19.28696626 13.61852117 16.66504952 13.53349505 12 14 C5.55524036 17.66466725 3.93848435 23.08110202 2 30 C1.05675313 33.93076231 0.88390153 37.574434 0.90234375 41.61328125 C0.90717773 43.4840332 0.90717773 43.4840332 0.91210938 45.39257812 C0.92048828 46.68615234 0.92886719 47.97972656 0.9375 49.3125 C0.94201172 50.62541016 0.94652344 51.93832031 0.95117188 53.29101562 C0.96294051 56.5273901 0.9793824 59.76367178 1 63 C3.97 63.66 6.94 64.32 10 65 C10 65.66 10 66.32 10 67 C-2.21 67 -14.42 67 -27 67 C-27 66.34 -27 65.68 -27 65 C-25.865625 64.690625 -24.73125 64.38125 -23.5625 64.0625 C-20.21224901 63.37075469 -20.21224901 63.37075469 -19 62 C-18.90659566 60.37325222 -18.88254829 58.74245949 -18.88647461 57.11303711 C-18.88655014 56.07203354 -18.88662567 55.03102997 -18.88670349 53.95848083 C-18.89186478 52.8262056 -18.89702606 51.69393036 -18.90234375 50.52734375 C-18.9037587 49.37456436 -18.90517365 48.22178497 -18.90663147 47.03407288 C-18.91224995 43.33518936 -18.92480558 39.63636536 -18.9375 35.9375 C-18.94251262 33.43684983 -18.94707594 30.93619871 -18.95117188 28.43554688 C-18.96222538 22.29034412 -18.97898148 16.14517631 -19 10 C-21.64 9.34 -24.28 8.68 -27 8 C-27 7.01 -27 6.02 -27 5 C-25.88882813 4.97421875 -24.77765625 4.9484375 -23.6328125 4.921875 C-15.75412543 4.65083754 -8.97924679 4.3207231 -1.78515625 0.7421875 C-1.19605469 0.49726563 -0.60695313 0.25234375 0 0 Z " fill="#4B4A90" transform="translate(694,497)"/>
<path d="M0 0 C1.3003418 -0.00193359 1.3003418 -0.00193359 2.62695312 -0.00390625 C3.97370117 0.00189453 3.97370117 0.00189453 5.34765625 0.0078125 C6.24162109 0.00394531 7.13558594 0.00007813 8.05664062 -0.00390625 C12.35070303 0.00246949 16.20093335 0.27060071 20.41015625 1.1328125 C23.34871846 1.25535897 26.28221537 1.22735419 29.22265625 1.1953125 C30.01091797 1.19080078 30.79917969 1.18628906 31.61132812 1.18164062 C33.54430386 1.16992562 35.47724018 1.15199248 37.41015625 1.1328125 C37.0234375 1.60589844 36.63671875 2.07898438 36.23828125 2.56640625 C32.36358514 7.48650304 29.75200585 12.34424067 27.41015625 18.1328125 C27.08015625 18.7928125 26.75015625 19.4528125 26.41015625 20.1328125 C20.82630777 19.99321629 18.21206394 17.57638 14.33984375 13.921875 C10.41590968 10.28389564 7.54882367 8.33457358 2.09765625 7.8203125 C-2.89143403 8.24311676 -5.59742007 9.95412824 -8.96875 13.640625 C-18.11008534 25.37427932 -17.31863874 41.05357294 -16.58984375 55.1328125 C-16.06326038 59.09557546 -15.14769723 62.46072931 -13.58984375 66.1328125 C-13.16445313 67.15761719 -12.7390625 68.18242188 -12.30078125 69.23828125 C-9.49464946 75.39826573 -6.64639626 80.74592458 -0.58984375 84.1328125 C3.63928959 85.5168925 6.31282697 85.44199217 10.28515625 83.6328125 C13.38478451 81.91609531 16.04478739 79.87142368 18.78515625 77.6328125 C25.28213889 72.4240247 32.0203116 69.40326079 40.41015625 70.1328125 C39.95569661 71.55072658 39.49640681 72.96709296 39.03515625 74.3828125 C38.65230469 75.56617188 38.65230469 75.56617188 38.26171875 76.7734375 C37.41015625 79.1328125 37.41015625 79.1328125 36.2890625 81.234375 C34.97785964 84.06657317 35.70148892 86.16929459 36.41015625 89.1328125 C36.74015625 89.7928125 37.07015625 90.4528125 37.41015625 91.1328125 C36.15203125 90.9678125 34.89390625 90.8028125 33.59765625 90.6328125 C25.9955234 89.8080528 18.8158265 89.53169779 11.41796875 91.61328125 C1.52033986 94.17434087 -9.50237773 93.65687904 -18.58984375 88.7578125 C-27.96857116 83.07928614 -34.38144799 74.68774697 -37.08984375 63.97265625 C-39.96735883 47.62926984 -38.82858045 31.3961253 -29.58984375 17.1328125 C-22.57446254 7.33354985 -12.41677225 0.01783836 0 0 Z " fill="#4B4990" transform="translate(434.58984375,472.8671875)"/>
<path d="M0 0 C6.29469265 4.60520804 10.11287158 12.38193448 11.70703125 19.89453125 C13.04167621 31.12654333 11.79015368 41.46929727 5.0546875 50.8203125 C-1.51272421 58.09035122 -9.4682312 62.23050249 -19.26953125 62.85546875 C-29.84363386 62.71653893 -38.66052169 60.44530474 -46.1953125 52.8828125 C-52.54867764 45.25377169 -54.74304238 35.65907765 -54.31640625 25.859375 C-52.98422204 14.94948745 -49.38011446 7.02244225 -40.9453125 -0.1796875 C-28.85647367 -8.16809418 -12.06666631 -7.3175366 0 0 Z M-30.9453125 4.8203125 C-36.65642077 14.40681568 -35.95126332 26.05309342 -33.8203125 36.6953125 C-31.99319282 43.69352563 -28.97683343 49.1774481 -23.5078125 53.9453125 C-19.82833999 55.20171775 -17.66121107 54.94835314 -13.9453125 53.8203125 C-8.97710597 49.18331974 -7.24713521 44.79251501 -6.7265625 37.94140625 C-6.3833088 26.05624673 -8.21379269 14.25538753 -15.9453125 4.8203125 C-21.38620222 1.12050749 -25.64067857 0.73982486 -30.9453125 4.8203125 Z " fill="#4B4990" transform="translate(542.9453125,503.1796875)"/>
<path d="M0 0 C4.58914103 3.54927949 8.03734338 7.1037282 9 13 C9.09983112 19.18952934 7.66200848 22.46229765 3.4140625 26.9375 C-0.0264382 29.87695691 -3.80074956 32.20275502 -7.64624023 34.56298828 C-18.17043704 41.08143752 -18.17043704 41.08143752 -25 51 C-24.70194993 53.19747131 -24.70194993 53.19747131 -24 55 C-22.25328412 55.79356801 -22.25328412 55.79356801 -20 56 C-16.13518692 54.01256681 -13.15777171 51.46041098 -10 48.5 C-4.51374432 43.3566353 -0.59487373 40.74459546 7 40 C6.125 47.75 6.125 47.75 5 50 C4.93003986 51.70702735 4.91559846 53.41668003 4.9375 55.125 C4.94652344 56.03507813 4.95554687 56.94515625 4.96484375 57.8828125 C4.97644531 58.58148437 4.98804688 59.28015625 5 60 C4.16597656 59.96519531 3.33195313 59.93039062 2.47265625 59.89453125 C-3.87926718 59.74173584 -9.02328449 59.99070862 -14.9609375 62.2578125 C-22.3686316 64.95409962 -30.06027185 64.25090449 -37.203125 60.99609375 C-44.56054599 56.74170719 -49.19861626 50.96182748 -52 43 C-54.9275597 30.7124959 -52.76114712 19.84372166 -46.25 9.1875 C-36.25651903 -4.84857001 -14.80665779 -9.45518784 0 0 Z M-29 7 C-35.27620256 16.74305731 -35.52576054 29.26474888 -33.328125 40.40625 C-32.64235529 42.65764488 -31.91486202 44.83264831 -31 47 C-30.34 47 -29.68 47 -29 47 C-27.72083256 45.5844541 -27.72083256 45.5844541 -26.4375 43.6875 C-23.18462023 39.17673322 -19.6490266 34.94928522 -16.05078125 30.7109375 C-11.82417266 25.12376348 -10.32086594 20.63358403 -10.51953125 13.69921875 C-11.30724228 9.27394787 -13.41660561 6.6261863 -17 4 C-22.23530439 1.92769201 -24.9125203 3.35681157 -29 7 Z " fill="#4B4990" transform="translate(817,502)"/>
<path d="M0 0 C4.12267765 2.87127465 7.27172644 5.51310814 9.5 10.0625 C10.29269458 14.71958064 10.70130408 17.62661283 8.5 21.9375 C3.1501805 28.49102888 -3.16740495 32.81619807 -10.3125 37.2421875 C-15.65492022 40.73650305 -21.53310002 44.91498004 -24 51 C-23.79356801 53.25328412 -23.79356801 53.25328412 -23 55 C-20.90504697 56.06043651 -20.90504697 56.06043651 -18 56 C-12.73482528 53.05868704 -8.2811432 48.57195781 -3.859375 44.515625 C0.40108629 41.04281202 3.52334704 40.7893595 9 41 C8.7834375 41.61746094 8.566875 42.23492187 8.34375 42.87109375 C6.38255242 48.83640307 5.69655502 53.72880367 6 60 C5.20078125 59.95359375 4.4015625 59.9071875 3.578125 59.859375 C-3.80439138 59.61675709 -9.38764877 60.55454365 -16.29296875 63.09765625 C-23.26607952 65.42202651 -30.44497256 64.09981719 -37 61 C-45.29516039 55.35070974 -49.37751886 49.15669762 -51.5703125 39.484375 C-53.24611719 29.795177 -51.5068472 20.19509318 -46.64453125 11.60546875 C-45.20642506 9.58903568 -43.70480469 7.79517988 -42 6 C-41.47535156 5.44699219 -40.95070313 4.89398438 -40.41015625 4.32421875 C-29.68142154 -5.84914616 -12.72096104 -7.62363395 0 0 Z M-29 9 C-34.17862003 18.49130688 -34.47081352 29.87285792 -32.31640625 40.3125 C-31.63825088 42.59681282 -30.90869649 44.79857457 -30 47 C-29.34 47 -28.68 47 -28 47 C-26.46018004 45.28668186 -26.46018004 45.28668186 -24.875 43.0625 C-22.30990121 39.64952336 -19.6435198 36.45159528 -16.75 33.3125 C-11.85388147 27.8386963 -8.75346936 22.49743169 -9 15 C-10.43375414 10.47235534 -11.99805472 6.70401708 -16 4 C-22.28413549 3.10226636 -25.16936502 3.57326711 -29 9 Z " fill="#4C4A90" transform="translate(705,332)"/>
<path d="M0 0 C-0.33 7.26 -0.66 14.52 -1 22 C-0.34 21.67 0.32 21.34 1 21 C3.04055005 20.92934383 5.08334257 20.91578024 7.125 20.9375 C8.22070312 20.94652344 9.31640625 20.95554687 10.4453125 20.96484375 C11.70988281 20.98224609 11.70988281 20.98224609 13 21 C12.57074219 21.84304688 12.57074219 21.84304688 12.1328125 22.703125 C10.98584069 25.02870923 9.92160206 27.37770201 8.875 29.75 C8.52179687 30.54921875 8.16859375 31.3484375 7.8046875 32.171875 C7.53914062 32.77515625 7.27359375 33.3784375 7 34 C4.69 34 2.38 34 0 34 C-0.04944073 40.19302201 -0.08573905 46.38592909 -0.10986328 52.57910156 C-0.11992034 54.68589275 -0.13356768 56.79266999 -0.15087891 58.89941406 C-0.17514 61.92776941 -0.18648608 64.95594019 -0.1953125 67.984375 C-0.20563507 68.92617615 -0.21595764 69.86797729 -0.22659302 70.83831787 C-0.22674408 71.71892883 -0.22689514 72.59953979 -0.22705078 73.50683594 C-0.23371262 74.66599518 -0.23371262 74.66599518 -0.24050903 75.84857178 C0.03038648 78.27181653 0.79451907 79.89773202 2 82 C5.68754757 81.50168276 7.60490662 80.89932357 10 78 C10.99 78.99 10.99 78.99 12 80 C11.8125 82 11.8125 82 11 84 C6.17868775 87.21420816 0.41963894 87.36764036 -5.2890625 86.75390625 C-10.91862799 85.52583501 -15.35851461 83.20751484 -18.8125 78.5625 C-20.89874928 74.06059366 -21.13405962 69.7498865 -21.20532227 64.83276367 C-21.22526749 63.61187546 -21.24521271 62.39098724 -21.26576233 61.13310242 C-21.29083107 59.17036125 -21.29083107 59.17036125 -21.31640625 57.16796875 C-21.3369958 55.80747372 -21.35799278 54.44698481 -21.37937927 53.08650208 C-21.43439347 49.51751677 -21.48389317 45.94847573 -21.53222656 42.37939453 C-21.58259306 38.73269734 -21.6381998 35.08608041 -21.69335938 31.43945312 C-21.80068804 24.29303849 -21.90218843 17.14655175 -22 10 C-24.64 9.34 -27.28 8.68 -30 8 C-30 7.01 -30 6.02 -30 5 C-28.35064453 4.96132813 -28.35064453 4.96132813 -26.66796875 4.921875 C-18.56229413 4.64192587 -11.56405872 4.08320687 -4.00390625 0.83984375 C-2 0 -2 0 0 0 Z " fill="#4C4990" transform="translate(949,479)"/>
<path d="M0 0 C1.50062713 0.0201013 3.00128034 0.03834564 4.50195312 0.0546875 C8.14768483 0.09838313 11.79242199 0.16720798 15.4375 0.25 C14.26117804 3.24929858 13.07348413 6.01175943 11.375 8.75 C9.72335924 11.55594731 8.83397436 13.97908654 8.4375 17.25 C4.26985305 16.72263518 2.14713342 15.48761339 -1 12.75 C-4.50608306 9.92888019 -6.88130033 8.04194668 -11.5625 8.25 C-15.02041435 9.21821602 -16.90709242 10.16805733 -18.79296875 13.28125 C-23.84835478 24.23154465 -24.06319311 36.4270221 -20.484375 47.90625 C-19.21059591 51.14467141 -17.73870846 53.52973943 -15.5625 56.25 C-15.088125 56.848125 -14.61375 57.44625 -14.125 58.0625 C-11.85419372 59.78831277 -10.42689343 60.1833862 -7.5625 60.25 C-3.28736484 58.06272155 -0.17704939 54.96329445 3.3125 51.6875 C8.23180079 47.176286 12.53985836 44.25 19.4375 44.25 C18.83305586 48.98481247 17.94075374 53.51485029 16.7421875 58.13671875 C16.40595908 60.46876459 16.72373761 62.02326241 17.4375 64.25 C16.06078125 64.19779297 16.06078125 64.19779297 14.65625 64.14453125 C7.3308738 63.98294207 2.126975 64.3666056 -4.5625 67.25 C-12.94292786 69.03599282 -21.02242701 68.19189781 -28.375 63.5625 C-35.28049327 58.44823486 -40.12618696 52.90348931 -41.5625 44.25 C-42.46939994 34.67225186 -42.38436323 25.8222013 -37.5625 17.25 C-36.985 16.198125 -36.4075 15.14625 -35.8125 14.0625 C-25.76334843 1.50106053 -15.3282503 -0.35871388 0 0 Z " fill="#4B4990" transform="translate(884.5625,497.75)"/>
<path d="M0 0 C-0.00333092 1.06995712 -0.00333092 1.06995712 -0.00672913 2.16152954 C-0.0268064 8.89965136 -0.04201199 15.63776477 -0.05181217 22.37590981 C-0.05701998 25.83964952 -0.06407929 29.30336441 -0.07543945 32.76708984 C-0.08843161 36.75357766 -0.0932456 40.74005559 -0.09765625 44.7265625 C-0.10281754 45.96427399 -0.10797882 47.20198547 -0.11329651 48.47720337 C-0.11337204 49.6379538 -0.11344757 50.79870422 -0.11352539 51.99462891 C-0.11685631 53.52018906 -0.11685631 53.52018906 -0.12025452 55.0765686 C0.00503141 58.12231548 0.43784215 61.00656992 1 64 C3.91634129 64.2502157 3.91634129 64.2502157 7 64 C7.66 63.01 8.32 62.02 9 61 C10.32 61.33 11.64 61.66 13 62 C11.9730655 65.30901116 10.96077893 66.0219638 7.875 67.75 C1.48452877 70.15302844 -4.58928794 69.38979777 -10.8828125 67.125 C-15.06095915 64.90487779 -17.90711182 61.18577635 -20 57 C-20.10263149 55.56593877 -20.14583251 54.12737722 -20.15771484 52.68969727 C-20.16797699 51.79859756 -20.17823914 50.90749786 -20.18881226 49.98939514 C-20.19611359 49.02480881 -20.20341492 48.06022247 -20.2109375 47.06640625 C-20.23900007 45.03579915 -20.26766449 43.00520029 -20.296875 40.97460938 C-20.33819854 37.76391781 -20.37507467 34.55338118 -20.40136719 31.3425293 C-20.42890342 28.25016273 -20.47476933 25.1585026 -20.5234375 22.06640625 C-20.52669037 21.10384415 -20.52994324 20.14128204 -20.53329468 19.14955139 C-20.55814438 17.8081736 -20.55814438 17.8081736 -20.58349609 16.43969727 C-20.59562637 15.25960838 -20.59562637 15.25960838 -20.60800171 14.05567932 C-21.10336987 11.45791778 -21.90870474 10.58171679 -24 9 C-27.10839021 8.2730774 -27.10839021 8.2730774 -30 8 C-30 7.34 -30 6.68 -30 6 C-28.74445312 5.90203125 -27.48890625 5.8040625 -26.1953125 5.703125 C-17.76763384 4.97459937 -7.63249393 0 0 0 Z " fill="#4B4990" transform="translate(844,327)"/>
<path d="M0 0 C3.02223535 2.05769215 4.57849415 3.57839954 5.62890625 7.12109375 C6.44361967 12.20662069 6.06153968 15.67161632 3 20 C-1.38581023 22.76249086 -5.97765452 22.67452213 -11 22 C-14.55680172 19.89495409 -15.69468936 18.91593192 -17 15 C-17.51663426 10.47733286 -17.61330746 7.06760929 -15.3125 3.0625 C-10.53899754 -1.19494814 -6.04297167 -1.84341156 0 0 Z " fill="#4C498F" transform="translate(838,304)"/>
<path d="M0 0 C1 2.5625 1 2.5625 2 6 C3.25435444 8.70804427 4.61733217 11.35547998 6 14 C6.0272415 12.58344207 6.04650467 11.16672955 6.0625 9.75 C6.07410156 8.96109375 6.08570313 8.1721875 6.09765625 7.359375 C6.00385306 5.09308998 5.63241063 3.1711105 5 1 C8.465 0.505 8.465 0.505 12 0 C12.66 1.32 13.32 2.64 14 4 C13.34 4 12.68 4 12 4 C11.97299325 6.91672884 11.95315763 9.83320677 11.9375 12.75 C11.92912109 13.575 11.92074219 14.4 11.91210938 15.25 C11.90888672 16.04921875 11.90566406 16.8484375 11.90234375 17.671875 C11.89710693 18.4050293 11.89187012 19.13818359 11.88647461 19.89355469 C12.0024891 22.0461849 12.40926729 23.9314135 13 26 C10.16420785 26.05671584 8.57150714 26.06371581 6 25 C3.5746888 22.23939232 1.84932557 19.16192159 0 16 C-0.99 14.68 -1.98 13.36 -3 12 C-3 15.3 -3 18.6 -3 22 C-2.34 22 -1.68 22 -1 22 C-1 22.99 -1 23.98 -1 25 C-4.3 25 -7.6 25 -11 25 C-11 24.01 -11 23.02 -11 22 C-10.34 22 -9.68 22 -9 22 C-9 16.39 -9 10.78 -9 5 C-9.66 4.67 -10.32 4.34 -11 4 C-10.67 3.01 -10.34 2.02 -10 1 C-3.390625 -1.9375 -3.390625 -1.9375 0 0 Z " fill="#4B4991" transform="translate(457,603)"/>
<path d="M0 0 C1.61984182 4.10359928 0.36461274 7.8801054 -0.8125 12 C-1.1621377 15.32155813 -0.07569017 16.78661264 1.9375 19.375 C2.9275 19.705 3.9175 20.035 4.9375 20.375 C4.6075 21.365 4.2775 22.355 3.9375 23.375 C-2.8125 24.5 -2.8125 24.5 -5.0625 23.375 C-5.44313221 21.0489143 -5.77519945 18.71444736 -6.0625 16.375 C-6.3925 15.715 -6.7225 15.055 -7.0625 14.375 C-8.0525 14.045 -9.0425 13.715 -10.0625 13.375 C-9.72022428 16.34565509 -9.72022428 16.34565509 -9.0625 19.375 C-8.4025 19.705 -7.7425 20.035 -7.0625 20.375 C-7.3925 21.365 -7.7225 22.355 -8.0625 23.375 C-11.3625 23.375 -14.6625 23.375 -18.0625 23.375 C-18.3925 22.385 -18.7225 21.395 -19.0625 20.375 C-18.4025 20.045 -17.7425 19.715 -17.0625 19.375 C-16.5675 10.465 -16.5675 10.465 -16.0625 1.375 C-17.0525 1.045 -18.0425 0.715 -19.0625 0.375 C-18.7325 -0.285 -18.4025 -0.945 -18.0625 -1.625 C-12.20063762 -2.7562366 -4.99099413 -3.93229841 0 0 Z M-10.0625 2.375 C-10.0625 4.355 -10.0625 6.335 -10.0625 8.375 C-8.11250871 8.18028889 -8.11250871 8.18028889 -6.0625 7.375 C-4.77813266 5.3912233 -4.77813266 5.3912233 -4.0625 3.375 C-5.12895115 2.07866379 -5.12895115 2.07866379 -7.625 2.3125 C-8.429375 2.333125 -9.23375 2.35375 -10.0625 2.375 Z " fill="#4B4990" transform="translate(755.0625,604.625)"/>
<path d="M0 0 C3.2138627 1.60693135 5.16978419 2.94336169 7.375 5.75 C8.73494071 10.64578657 8.51165247 14.64412095 6.75 19.3125 C4.97300077 22.04146311 3.74166831 23.30719056 1 25 C-3.67053156 25.78612907 -7.95788623 25.34105542 -12.4375 23.875 C-15.71786677 21.47473163 -16.77586148 19.88844001 -18 16 C-18.28696986 11.1476005 -17.6623928 7.3265739 -14.5625 3.5 C-10.12961394 -0.82476689 -5.98417666 -0.67000751 0 0 Z M-10.3125 7.125 C-12.31486677 10.53643968 -12.72862574 12.11399608 -12 16 C-10.02033737 19.06307631 -10.02033737 19.06307631 -7 21 C-3.84627591 21.33550847 -3.84627591 21.33550847 -1 20 C1.30152955 17.31488219 1.93157489 15.41910382 2.5 11.9375 C2.24615017 8.8347707 2.24615017 8.8347707 -0.1875 6.625 C-4.45063567 4.16185494 -6.57214713 3.68791898 -10.3125 7.125 Z " fill="#4B4991" transform="translate(651,603)"/>
<path d="M0 0 C3.66698587 1.8103678 6.22656052 4.05237519 7.75390625 7.8984375 C8.68949877 12.88169874 7.65009955 17.68521697 5 22 C1.97225591 24.90131082 -0.22575315 25.43168873 -4.375 25.4375 C-9.33099614 25.29854684 -12.26188534 24.45056738 -16 21 C-18.38014217 17.97072814 -18.36257751 14.74948606 -18.25 10.95703125 C-17.73374137 6.91569414 -15.56476593 4.63322241 -12.9375 1.6875 C-8.61362367 -0.79642896 -4.86324379 -0.98323747 0 0 Z M-10.3125 6.5 C-12.36227289 9.53670057 -12.64203952 11.48022707 -12.453125 15.08984375 C-12.08282518 17.29751978 -12.08282518 17.29751978 -9.8125 19.5625 C-7.14586886 21.18159226 -7.14586886 21.18159226 -4.4375 21.0625 C-1.08777392 19.60236299 0.2016167 18.18175506 2 15 C2 11.15050705 1.86589381 8.95866815 -0.75 6.0625 C-4.52802448 4.27843288 -6.77143331 4.20309188 -10.3125 6.5 Z " fill="#4B4991" transform="translate(1039,603)"/>
<path d="M0 0 C3.67597239 2.6890734 5.17472183 5.78406841 5.96484375 10.109375 C6.24727166 14.89242834 4.7309309 18.18226302 2.1484375 22.09765625 C-2.41750742 25.17268038 -6.56763291 25.01464426 -11.9140625 24.16015625 C-15.18865297 22.55158549 -17.05797974 21.24971613 -19.2890625 18.41015625 C-20.71235051 13.28631943 -20.64289047 8.9597964 -18.1640625 4.28515625 C-13.94303038 -1.57738835 -6.6908083 -2.93576283 0 0 Z M-13.9140625 8.16015625 C-14.55337226 11.69056682 -14.65823207 14.94598485 -12.7265625 18.09765625 C-10.30375953 19.51792006 -8.74668325 20.0927129 -5.9140625 20.16015625 C-2.19112603 18.12946363 -1.11376213 16.77034956 0.2109375 12.72265625 C0.41297134 9.0376382 0.41297134 9.0376382 -2.0390625 6.22265625 C-4.69334481 4.03171804 -4.69334481 4.03171804 -7.4765625 3.59765625 C-10.84880021 4.37586495 -11.9713419 5.28205166 -13.9140625 8.16015625 Z " fill="#4C4A90" transform="translate(892.9140625,603.83984375)"/>
<path d="M0 0 C1.50662097 3.01324195 1.17770373 5.68286377 1 9 C0.34 9.66 -0.32 10.32 -1 11 C-0.86841158 15.86877172 1.66013535 17.74577291 5 21 C5 21.99 5 22.98 5 24 C1.04 24.495 1.04 24.495 -3 25 C-5.12046792 21.46588679 -5.53199289 18.05606165 -6 14 C-7.32 14 -8.64 14 -10 14 C-9.73343428 16.93443402 -9.73343428 16.93443402 -9 20 C-8.01 20.66 -7.02 21.32 -6 22 C-6.33 22.66 -6.66 23.32 -7 24 C-8.62418745 24.08090971 -10.24951745 24.13914995 -11.875 24.1875 C-12.77992187 24.22230469 -13.68484375 24.25710938 -14.6171875 24.29296875 C-15.79667969 24.14794922 -15.79667969 24.14794922 -17 24 C-17.66 23.01 -18.32 22.02 -19 21 C-18.01 20.67 -17.02 20.34 -16 20 C-16 14.39 -16 8.78 -16 3 C-16.66 2.67 -17.32 2.34 -18 2 C-17.67 1.01 -17.34 0.02 -17 -1 C-4.5 -3 -4.5 -3 0 0 Z M-10 3 C-9.67 4.98 -9.34 6.96 -9 9 C-7.35 8.34 -5.7 7.68 -4 7 C-4.33 5.68 -4.66 4.36 -5 3 C-6.65 3 -8.3 3 -10 3 Z " fill="#4B4990" transform="translate(1091,604)"/>
<path d="M0 0 C0 0.99 0 1.98 0 3 C-0.66 3 -1.32 3 -2 3 C-1.67 8.28 -1.34 13.56 -1 19 C0.32 19.33 1.64 19.66 3 20 C5.38963443 14.65846422 5.31502187 9.63126301 4 4 C3.34 3.67 2.68 3.34 2 3 C2.33 2.01 2.66 1.02 3 0 C4.45635371 -0.22174933 5.91522956 -0.42698698 7.375 -0.625 C8.59316406 -0.79902344 8.59316406 -0.79902344 9.8359375 -0.9765625 C10.55007813 -0.98429688 11.26421875 -0.99203125 12 -1 C14 1 14 1 14 4 C13.34 4 12.68 4 12 4 C11.96261719 4.85722656 11.92523437 5.71445312 11.88671875 6.59765625 C11.20508499 18.45273752 11.20508499 18.45273752 8 24 C4.29873141 26.46751239 2.37776468 26.30721156 -2 26 C-4.50950926 25.1861051 -5.58757172 24.60139541 -7.07421875 22.43359375 C-8.64115018 18.31461365 -8.43672051 13.93980758 -8.56640625 9.58007812 C-8.64528608 7.7161135 -8.81540109 5.85647769 -9 4 C-9.66 3.67 -10.32 3.34 -11 3 C-10.67 2.01 -10.34 1.02 -10 0 C-6.33694766 -0.74926071 -3.57644848 -1.2380014 0 0 Z " fill="#4B4991" transform="translate(696,603)"/>
<path d="M0 0 C2.06183633 -0.08150744 4.12461349 -0.1394194 6.1875 -0.1875 C7.33605469 -0.22230469 8.48460937 -0.25710938 9.66796875 -0.29296875 C13.31819263 0.02797708 15.08778809 0.8314422 18 3 C21.17725642 6.94418038 21.52516147 10.010966 21 15 C19.16101158 20.10830118 16.5383298 23.03263052 12 26 C8.4375 26.25 8.4375 26.25 5 26 C3.32442621 26.28520405 1.65182755 26.59955696 0 27 C0 24 0 24 1 23 C1.08651611 21.58429877 1.10704904 20.164405 1.09765625 18.74609375 C1.09443359 17.89208984 1.09121094 17.03808594 1.08789062 16.15820312 C1.07951172 15.26037109 1.07113281 14.36253906 1.0625 13.4375 C1.05798828 12.53580078 1.05347656 11.63410156 1.04882812 10.70507812 C1.03700225 8.46998686 1.0205222 6.23502563 1 4 C0.34 3.67 -0.32 3.34 -1 3 C-0.67 2.01 -0.34 1.02 0 0 Z M7 5 C7 10.28 7 15.56 7 21 C12.00836783 20.51447733 12.00836783 20.51447733 14.375 17.375 C16.34304141 13.28752938 16.32530078 11.30722755 15 7 C12.17700309 4.76107141 10.7208921 5 7 5 Z " fill="#4B4990" transform="translate(825,603)"/>
<path d="M0 0 C2.06183633 -0.08150744 4.12461349 -0.1394194 6.1875 -0.1875 C7.33605469 -0.22230469 8.48460937 -0.25710938 9.66796875 -0.29296875 C14.08628294 0.0955114 16.56664787 1.71492568 19.8125 4.625 C21.69186761 8.38373521 21.6242483 11.88689732 21 16 C19.25659319 20.88341371 16.64269373 23.72481628 12 26 C8.88671875 26.51171875 8.88671875 26.51171875 5.6875 26.6875 C4.61886719 26.75324219 3.55023438 26.81898438 2.44921875 26.88671875 C1.64097656 26.92410156 0.83273437 26.96148438 0 27 C-0.33 26.34 -0.66 25.68 -1 25 C-0.34 24.67 0.32 24.34 1 24 C1 17.4 1 10.8 1 4 C0.34 3.67 -0.32 3.34 -1 3 C-0.67 2.01 -0.34 1.02 0 0 Z M8 5 C6.60843516 6.16277032 6.60843516 6.16277032 6.90234375 9.37890625 C6.90901631 10.77347077 6.92097468 12.16801743 6.9375 13.5625 C6.94201172 14.27341797 6.94652344 14.98433594 6.95117188 15.71679688 C6.96299136 17.47790013 6.98092737 19.23896036 7 21 C9.6683055 20.63941818 11.5586184 20.32243466 13.75390625 18.71875 C16.0601727 15.53769282 16.2433938 11.84419035 16 8 C14.4607536 5.78249092 14.4607536 5.78249092 12 5 C10.68 5 9.36 5 8 5 Z " fill="#4B4991" transform="translate(498,603)"/>
<path d="M0 0 C1.24523437 0.02707031 2.49046875 0.05414062 3.7734375 0.08203125 C4.71445312 0.11683594 5.65546875 0.15164063 6.625 0.1875 C6.78125 2.51171875 6.78125 2.51171875 6.625 5.1875 C4.125 8 4.125 8 1.625 10.1875 C1.295 8.8675 0.965 7.5475 0.625 6.1875 C-4.45803686 6.07429144 -4.45803686 6.07429144 -9.375 7.1875 C-10.18555074 10.94550798 -10.66166538 13.4118172 -9.3125 17.0625 C-7.47464899 19.39307704 -7.47464899 19.39307704 -4.5 20.3125 C-1.15310407 20.50877007 -1.15310407 20.50877007 1.375 17.75 C2.1175 16.904375 2.86 16.05875 3.625 15.1875 C4.285 15.1875 4.945 15.1875 5.625 15.1875 C5.34074109 18.88286586 5.0773486 21.5089771 3 24.625 C-0.39591967 26.85915768 -2.36165056 26.72261326 -6.375 26.1875 C-10.04969282 24.88507723 -13.41022418 23.67512208 -15.5859375 20.3203125 C-17.37888713 15.47402291 -16.8569797 10.63343911 -15.25 5.8125 C-11.34556888 0.34629644 -6.38211125 -0.18062579 0 0 Z " fill="#4B4991" transform="translate(942.375,602.8125)"/>
<path d="M0 0 C6.6 0 13.2 0 20 0 C18.68 2.31 17.36 4.62 16 7 C15.34 7 14.68 7 14 7 C14 6.34 14 5.68 14 5 C11.69 5 9.38 5 7 5 C7 6.65 7 8.3 7 10 C8.98 9.34 10.96 8.68 13 8 C14.125 14.75 14.125 14.75 13 17 C12.34 17 11.68 17 11 17 C11 16.34 11 15.68 11 15 C10.01 15.33 9.02 15.66 8 16 C8.34227572 18.97065509 8.34227572 18.97065509 9 22 C9.66 22.33 10.32 22.66 11 23 C10.67 23.99 10.34 24.98 10 26 C6.7 26 3.4 26 0 26 C0.33 25.01 0.66 24.02 1 23 C1.1464714 21.44733347 1.24694074 19.89004338 1.31640625 18.33203125 C1.35830078 17.43935547 1.40019531 16.54667969 1.44335938 15.62695312 C1.48267578 14.69818359 1.52199219 13.76941406 1.5625 12.8125 C1.60568359 11.87212891 1.64886719 10.93175781 1.69335938 9.96289062 C1.79938665 7.64207146 1.90145029 5.32114675 2 3 C1.01 3 0.02 3 -1 3 C-0.67 2.01 -0.34 1.02 0 0 Z " fill="#4B4991" transform="translate(363,603)"/>
<path d="M0 0 C0.33 0.99 0.66 1.98 1 3 C0.34 3 -0.32 3 -1 3 C-0.34 4.65 0.32 6.3 1 8 C1.66 8 2.32 8 3 8 C3.66 6.35 4.32 4.7 5 3 C4.34 3 3.68 3 3 3 C3.33 2.01 3.66 1.02 4 0 C8.455 -0.495 8.455 -0.495 13 -1 C13.66 0.32 14.32 1.64 15 3 C14.2575 3.37125 13.515 3.7425 12.75 4.125 C8.82155648 6.80348422 6.46443042 9.63140484 5.53125 14.390625 C5.28153604 16.59643161 5.0985469 18.78269468 5 21 C5.99 21 6.98 21 8 21 C7.67 21.99 7.34 22.98 7 24 C3.30581799 25.231394 0.7943739 24.64432764 -3 24 C-3 23.01 -3 22.02 -3 21 C-2.34 21 -1.68 21 -1 21 C-1.16474648 14.39516398 -2.3565573 9.84474802 -7 5 C-7.99 4.34 -8.98 3.68 -10 3 C-9.67 2.01 -9.34 1.02 -9 0 C-5.69903842 -0.8252404 -3.1967 -1.37001429 0 0 Z " fill="#4B4A90" transform="translate(594,604)"/>
<path d="M0 0 C6.27 0 12.54 0 19 0 C19 2.31 19 4.62 19 7 C18.01 7.33 17.02 7.66 16 8 C15.34 7.34 14.68 6.68 14 6 C13.34 6 12.68 6 12 6 C12 11.61 12 17.22 12 23 C12.99 23 13.98 23 15 23 C14.67 23.99 14.34 24.98 14 26 C11.03 26 8.06 26 5 26 C5 25.01 5 24.02 5 23 C5.66 23 6.32 23 7 23 C7 17.39 7 11.78 7 6 C3.0285831 6.62841973 3.0285831 6.62841973 1 9 C0.67 8.67 0.34 8.34 0 8 C0 5.36 0 2.72 0 0 Z " fill="#4C4A8F" transform="translate(976,602)"/>
<path d="M0 0 C0.66 0.33 1.32 0.66 2 1 C2 1.99 2 2.98 2 4 C1.34 4 0.68 4 0 4 C0 9.61 0 15.22 0 21 C0.66 21.33 1.32 21.66 2 22 C2 22.99 2 23.98 2 25 C-1.3 25 -4.6 25 -8 25 C-8.33 24.01 -8.66 23.02 -9 22 C-8.01 22 -7.02 22 -6 22 C-6 16.39 -6 10.78 -6 5 C-6.66 4.67 -7.32 4.34 -8 4 C-8 3.01 -8 2.02 -8 1 C-5.26094655 -0.36952673 -3.02912668 -0.12621361 0 0 Z " fill="#4B4990" transform="translate(417,603)"/>
</svg>
